<svg
  width="200"
  height="200"
  viewBox="0 0 200 200"
  fill="none"
  xmlns="http://www.w3.org/2000/svg"
>
  <g clip-path="url(#clip0_568_2)">
    <rect width="200" height="200" rx="20" fill="#F1502F" />
    <path
      d="M101.6 160.92C92.7467 160.92 84.5333 159.48 76.96 156.6C69.4933 153.613 62.9333 149.453 57.28 144.12C51.7333 138.787 47.4133 132.547 44.32 125.4C41.2267 118.253 39.68 110.467 39.68 102.04C39.68 93.5067 41.28 85.6667 44.48 78.52C47.7867 71.3733 52.32 65.1867 58.08 59.96C63.9467 54.6267 70.72 50.52 78.4 47.64C86.08 44.6533 94.2933 43.16 103.04 43.16C113.6 43.16 123.04 44.9733 131.36 48.6C139.787 52.2267 146.613 57.1333 151.84 63.32L130.24 84.92C126.293 80.3333 122.187 76.92 117.92 74.68C113.653 72.44 108.533 71.32 102.56 71.32C96.9067 71.32 91.7867 72.6 87.2 75.16C82.6133 77.6133 78.9333 81.1333 76.16 85.72C73.4933 90.3067 72.16 95.6933 72.16 101.88C72.16 108.067 73.3867 113.507 75.84 118.2C78.4 122.787 81.92 126.36 86.4 128.92C90.88 131.48 96.1067 132.76 102.08 132.76C107.84 132.76 112.693 131.64 116.64 129.4C120.587 127.16 123.573 123.96 125.6 119.8C127.733 115.64 128.8 110.733 128.8 105.08L150.72 119L97.76 117.4V91.8H160.96V96.6C160.96 110.253 158.453 121.88 153.44 131.48C148.533 141.08 141.6 148.387 132.64 153.4C123.787 158.413 113.44 160.92 101.6 160.92Z"
      fill="black"
    />
    <path
      d="M110.406 40.6089L126.67 57.5436L145.411 49.0143"
      stroke="#F1502F"
      stroke-width="5"
    />
    <path
      d="M153.412 144.143L129.995 145.846L124.592 165.716"
      stroke="#F1502F"
      stroke-width="5"
    />
    <path
      d="M38.1091 121.467L49.2036 100.774L35.3108 85.576"
      stroke="#F1502F"
      stroke-width="5"
    />
  </g>
  <defs>
    <clipPath id="clip0_568_2">
      <rect width="200" height="200" rx="20" fill="white" />
    </clipPath>
  </defs>
</svg>
